<svg xmlns:xlink="http://www.w3.org/1999/xlink" xmlns="http://www.w3.org/2000/svg" version="1.1" viewBox="0 0 600 600" height="600px" width="600px">
    <title>无网络</title>
    <defs>
        <linearGradient id="linearGradient-1" y2="100%" x2="40.5999348%" y1="98.8%" x1="93.4061835%">
            <stop offset="0%" stop-opacity="0" stop-color="#E0E5EF"></stop>
            <stop offset="100%" stop-color="#E0E5EF"></stop>
        </linearGradient>
        <linearGradient id="linearGradient-2" y2="100%" x2="40.7922325%" y1="98.8%" x1="92.5182204%">
            <stop offset="0%" stop-opacity="0" stop-color="#E0E5EF"></stop>
            <stop offset="100%" stop-color="#E0E5EF"></stop>
        </linearGradient>
        <linearGradient id="linearGradient-3" y2="67.3261502%" x2="29.5159577%" y1="66.9103226%" x1="144.588078%">
            <stop offset="0%" stop-opacity="0" stop-color="#E0E5EF"></stop>
            <stop offset="100%" stop-color="#E0E5EF"></stop>
        </linearGradient>
        <linearGradient id="linearGradient-4" y2="67.3252081%" x2="29.5159577%" y1="66.9094031%" x1="144.588078%">
            <stop offset="0%" stop-opacity="0" stop-color="#E0E5EF"></stop>
            <stop offset="100%" stop-color="#E0E5EF"></stop>
        </linearGradient>
        <linearGradient id="linearGradient-5" y2="-14.3163109%" x2="50%" y1="116.487765%" x1="50%">
            <stop offset="0%" stop-color="#A2ABB9"></stop>
            <stop offset="100%" stop-color="#E7EAF0"></stop>
        </linearGradient>
        <linearGradient id="linearGradient-6" y2="43.2307613%" x2="-7.3256912%" y1="58.5156069%" x1="111.482015%">
            <stop offset="0%" stop-color="#D1D6E2"></stop>
            <stop offset="100%" stop-color="#C0C7D2"></stop>
        </linearGradient>
        <linearGradient id="linearGradient-7" y2="-14.3163109%" x2="50%" y1="116.487765%" x1="50%">
            <stop offset="0%" stop-color="#A2ABB9"></stop>
            <stop offset="100%" stop-color="#E7EAF0"></stop>
        </linearGradient>
        <linearGradient id="linearGradient-8" y2="-14.3163109%" x2="50%" y1="116.487765%" x1="50%">
            <stop offset="0%" stop-color="#A2ABB9"></stop>
            <stop offset="100%" stop-color="#E7EAF0"></stop>
        </linearGradient>
    </defs>
    <g fill-rule="evenodd" fill="none" stroke-width="1" stroke="none" id="无网络">
        <path opacity="0.60159418" fill="#F3F3FA" id="背景" d="M297.367308,77 C348.402047,77 395.459601,93.7621592 433.168202,121.998683 L418,122 C410.820298,122 405,127.820298 405,135 L405,135 L405,136 C405,143.179702 410.820298,149 418,149 L418,149 L463.178198,148.999242 C471.748983,158.235916 479.533899,168.191223 486.428804,178.762649 L507.876923,178.762791 C515.60891,178.762791 521.876923,185.030804 521.876923,192.762791 L521.876923,193.544186 C521.876923,199.932 517.59881,205.320607 511.751467,207.001125 L492,207 C483.163444,207 476,214.163444 476,223 L476,223 L476,228 C476,236.836556 483.163444,244 492,244 L492,244 L559.901402,243.999959 C566.852284,245.741603 572,252.03011 572,259.52093 L572,260.413953 C572,269.250509 564.836556,276.413953 556,276.413953 L520.819517,276.412835 C521.518998,283.515523 521.876923,290.716616 521.876923,298 C521.876923,420.05493 421.360544,519 297.367308,519 C198.189346,519 114.031537,455.696384 84.3182822,367.897256 L75.8924419,367.897674 C72.4862578,367.897674 69.725,365.136417 69.725,361.730233 C69.725,359.131567 71.3322058,356.908285 73.6068281,356.000174 L84,356 C91.1797017,356 97,350.179702 97,343 L97,343 L97,342 C97,334.820298 91.1797017,329 84,329 L84,329 L75.0490717,329.000249 C75.0414555,328.94684 75.0338587,328.893426 75.0262812,328.840005 L52.8540698,328.837209 C47.1770963,328.837209 42.575,324.235113 42.575,318.55814 C42.575,312.881166 47.1770963,308.27907 52.8540698,308.27907 L73.0963108,308.280676 C72.9378097,304.873341 72.8576923,301.445881 72.8576923,298 C72.8576923,265.369974 80.0416047,234.391611 92.9374566,206.513874 L57,206.516279 C41.536027,206.516279 29,193.980252 29,178.516279 L29,176.953488 C29,162.030754 40.6738617,149.834597 55.387455,148.999146 L182,149 C187.522847,149 192,144.522847 192,139 C192,133.477153 187.522847,129 182,129 L182,129 L152.69142,128.999011 C152.935414,128.796407 153.179853,128.594307 153.424735,128.392711 L138.848077,128.395349 C128.354667,128.395349 119.848077,119.888759 119.848077,109.395349 L119.848077,108.334884 C119.848077,97.8414735 128.354667,89.3348837 138.848077,89.3348837 L223.230522,89.3331487 C246.439795,81.3435511 271.388251,77 297.367308,77 Z"></path>
        <path fill="#E7EAF0" id="形状结合" d="M284.5,415 C345.879626,415 401.152405,420.00678 439.78802,428.003897 C477.575063,428.25539 508,439.574053 508,453.5 C508,464.536605 488.890416,473.935603 462.149089,477.485699 C455.766823,479.373982 448.582636,481.153843 440.691453,482.807922 C440.896873,483.861698 441,484.926358 441,486 C441,510.300529 388.1696,530 323,530 C264.367989,530 215.723701,514.054651 206.554085,493.159086 C128.319357,487.218328 73,472.596236 73,455.5 C73,433.132468 167.691775,415 284.5,415 Z"></path>
        <ellipse ry="9" rx="34.5" cy="466.098743" cx="298.5" fill-rule="nonzero" fill="#D1D6E2" id="椭圆形"></ellipse>
        <g fill-rule="nonzero" transform="translate(92.000000, 370.000000)" id="树备份">
            <path fill="url(#linearGradient-1)" id="路径" d="M371.3125,30.5677291 C371.395833,30.8970784 371.5,31.247012 371.625,31.6175299 L371.875,32.6055777 C371.958333,32.934927 372,33.2025233 372,33.4083665 C372,34.561089 371.6875,35.5800133 371.0625,36.4651395 C370.4375,37.3502656 369.625,37.998672 368.625,38.4103586 C368.25,38.4515272 367.854167,38.4721115 367.4375,38.4721115 C367.104167,38.5132802 366.729167,38.5338645 366.3125,38.5338645 L365.125,38.5338645 L355.375,38.6573705 L355.375,48.9701195 C355.375,50.4933599 355.40625,52.0268924 355.46875,53.5707171 C355.53125,55.1145418 355.604167,56.5039841 355.6875,57.7390438 C355.770833,59.2211155 355.875,60.6414342 356,62 L347,62 L347.1875,59.5916335 C347.229167,58.6447544 347.270833,57.3582338 347.3125,55.7320717 C347.354167,54.1059097 347.375,51.934263 347.375,49.2171315 L347.375,39.7689243 C346.666667,40.3864542 345.875,40.6952191 345,40.6952191 C344.291667,40.6952191 343.677083,40.5305445 343.15625,40.2011952 C342.635417,39.8718459 342.208333,39.4189907 341.875,38.8426295 L334.8125,38.4721115 C333.4375,38.1427623 332.291667,37.4531872 331.375,36.4033864 C330.458333,35.3535856 330,34.1082337 330,32.6673307 C330,32.4203187 330.020833,32.1938911 330.0625,31.9880478 C330.104167,31.7822045 330.166667,31.5763612 330.25,31.3705179 L331.8125,27.7888446 C331.895833,26.8831341 332.15625,26.0391766 332.59375,25.2569721 C333.03125,24.4747676 333.583333,23.7954847 334.25,23.2191235 L344.0625,5.24900397 L344.125,5.24900397 C344.916667,3.80810093 345.854167,2.57304117 346.9375,1.5438247 C348.020833,0.514608234 349.416667,0 351.125,0 C352.625,0 353.96875,0.391102256 355.15625,1.17330677 C356.34375,1.95551128 357.229167,2.98472775 357.8125,4.26095617 L365.6875,19.5139442 C367.104167,20.0079681 368.270833,20.87251 369.1875,22.1075697 C370.104167,23.3426294 370.5625,24.7629482 370.5625,26.3685259 C370.5625,27.0272244 370.458333,27.7270916 370.25,28.4681275 L371.3125,30.5677291 Z"></path>
            <path fill="url(#linearGradient-1)" id="路径" d="M411.3125,50.5677291 C411.395833,50.8970784 411.5,51.247012 411.625,51.6175299 L411.875,52.6055777 C411.958333,52.934927 412,53.2025233 412,53.4083665 C412,54.561089 411.6875,55.5800133 411.0625,56.4651395 C410.4375,57.3502656 409.625,57.998672 408.625,58.4103586 C408.25,58.4515272 407.854167,58.4721115 407.4375,58.4721115 C407.104167,58.5132802 406.729167,58.5338645 406.3125,58.5338645 L405.125,58.5338645 L395.375,58.6573705 L395.375,68.9701195 C395.375,70.4933599 395.40625,72.0268924 395.46875,73.5707171 C395.53125,75.1145418 395.604167,76.5039841 395.6875,77.7390438 C395.770833,79.2211155 395.875,80.6414342 396,82 L387,82 L387.1875,79.5916335 C387.229167,78.6447544 387.270833,77.3582338 387.3125,75.7320717 C387.354167,74.1059097 387.375,71.934263 387.375,69.2171315 L387.375,59.7689243 C386.666667,60.3864542 385.875,60.6952191 385,60.6952191 C384.291667,60.6952191 383.677083,60.5305445 383.15625,60.2011952 C382.635417,59.8718459 382.208333,59.4189907 381.875,58.8426295 L374.8125,58.4721115 C373.4375,58.1427623 372.291667,57.4531872 371.375,56.4033864 C370.458333,55.3535856 370,54.1082337 370,52.6673307 C370,52.4203187 370.020833,52.1938911 370.0625,51.9880478 C370.104167,51.7822045 370.166667,51.5763612 370.25,51.3705179 L371.8125,47.7888446 C371.895833,46.8831341 372.15625,46.0391766 372.59375,45.2569721 C373.03125,44.4747676 373.583333,43.7954847 374.25,43.2191235 L384.0625,25.249004 L384.125,25.249004 C384.916667,23.8081009 385.854167,22.5730412 386.9375,21.5438247 C388.020833,20.5146082 389.416667,20 391.125,20 C392.625,20 393.96875,20.3911023 395.15625,21.1733068 C396.34375,21.9555113 397.229167,22.9847277 397.8125,24.2609562 L405.6875,39.5139442 C407.104167,40.0079681 408.270833,40.87251 409.1875,42.1075697 C410.104167,43.3426294 410.5625,44.7629482 410.5625,46.3685259 C410.5625,47.0272244 410.458333,47.7270916 410.25,48.4681275 L411.3125,50.5677291 Z"></path>
            <path fill="url(#linearGradient-2)" id="路径" d="M58.0342261,43.3864542 C58.1512897,43.8539178 58.297619,44.3505977 58.4732143,44.876494 L58.8244047,46.2788845 C58.9414682,46.746348 59,47.1261621 59,47.4183267 C59,49.0544489 58.5610119,50.500664 57.6830357,51.7569721 C56.8050595,53.0132802 55.6636905,53.933599 54.2589286,54.5179283 C53.7321429,54.5763612 53.1760913,54.6055777 52.5907738,54.6055777 C52.1225198,54.6640106 51.5957341,54.693227 51.0104167,54.693227 L49.3422619,54.693227 L35.6458333,54.8685259 L35.6458333,69.505976 C35.6458333,71.6679947 35.6897321,73.8446215 35.7775297,76.0358565 C35.8653273,78.2270916 35.9677579,80.1992032 36.0848214,81.9521912 C36.2018849,84.0557769 36.3482143,86.0717131 36.5238095,88 L23.8809524,88 L24.1443452,84.5816733 C24.202877,83.2377159 24.2614087,81.4116866 24.3199405,79.1035857 C24.3784723,76.7954847 24.4077382,73.7131474 24.4077381,69.8565737 L24.4077381,56.4462151 C23.4126984,57.3227092 22.3005953,57.7609562 21.0714286,57.7609562 C20.0763889,57.7609562 19.2130457,57.5272244 18.4813989,57.0597609 C17.749752,56.5922974 17.1498016,55.9495352 16.6815476,55.1314741 L6.7604167,54.6055777 C4.82886905,54.1381142 3.21924603,53.1593625 1.93154762,51.6693227 C0.643849205,50.1792828 0,48.4116866 0,46.3665339 C0,46.0159362 0.0292658638,45.6945551 0.0877975915,45.4023904 C0.146329319,45.1102257 0.234126939,44.818061 0.351190452,44.5258964 L2.54613093,39.4422311 C2.66319444,38.1567065 3.02901785,36.9588314 3.64360117,35.8486056 C4.25818448,34.7383798 5.0337301,33.7742364 5.97023803,32.9561753 L19.7544642,7.45019919 L19.8422618,7.45019919 C20.954365,5.40504648 22.2713292,3.65205843 23.7931546,2.19123506 C25.31498,0.730411687 27.2757935,0 29.6755951,0 C31.7827379,0 33.6703867,0.55511288 35.3385415,1.66533864 C37.0066963,2.7755644 38.2504959,4.23638777 39.0699404,6.04780876 L50.1324403,27.6972112 C52.1225197,28.3984064 53.7614086,29.625498 55.049107,31.378486 C56.3368054,33.131474 56.9806546,35.1474103 56.9806546,37.4262948 C56.9806546,38.3612217 56.8343252,39.3545816 56.5416665,40.4063745 L58.0342261,43.3864542 Z"></path>
        </g>
        <g transform="translate(263.454253, 281.450271) scale(-1, 1) translate(-263.454253, -281.450271) translate(103.936912, 119.627627)" id="暂无数据">
            <path fill-rule="nonzero" fill="url(#linearGradient-3)" id="路径" d="M306.84284,94.3404983 L299.531517,94.3404983 C299.531517,79.704993 287.667211,67.8406874 273.031706,67.8406874 C258.396201,67.8406874 246.531517,79.704993 246.531517,94.3404983 L241.191085,94.3404983 C234.458057,94.3404983 229,100.273218 229,107.590971 C229,114.908724 234.458435,120.840687 241.191085,120.840687 L306.843218,120.840687 C313.577003,120.840687 319.034682,114.908346 319.034682,107.590971 C319.034682,100.27284 313.576625,94.3404983 306.84284,94.3404983 Z"></path>
            <path fill-rule="nonzero" fill="url(#linearGradient-4)" id="路径" d="M75.6623017,18.9996848 L70.4201615,18.9996848 C70.4201615,8.50594774 61.9135833,0 51.4198463,0 C40.9254788,0 32.4189006,8.50594774 32.4189006,18.9996848 L28.589585,18.9996848 C23.7622768,18.9996848 19.8484817,23.2539195 19.8484817,28.5004728 C19.8484817,33.7470261 23.7622768,38 28.589585,38 L75.6623017,38 C80.4902403,38 84.403405,33.7470261 84.403405,28.5004728 C84.403405,23.2539195 80.4902403,18.9996848 75.6623017,18.9996848 Z"></path>
            <g transform="translate(0.000000, 136.840687)" id="编组">
                <path fill-rule="nonzero" fill="#FFFFFF" id="路径" d="M71.49554,66.8942683 L144.186436,66.8942683 C148.591687,66.8942683 150.793926,69.0972804 150.793926,73.5033045 C150.793926,77.9085557 148.591687,80.1115677 144.186436,80.1115677 L71.49554,80.1115677 C67.0902889,80.1115677 64.8872768,77.9085557 64.8872768,73.5033045 C64.8872768,69.0965074 67.0902889,66.8942683 71.49554,66.8942683 L71.49554,66.8942683 Z"></path>
                <path fill-rule="nonzero" fill="#FFFFFF" id="路径" d="M71.49554,99.9363574 L124.362419,99.9363574 C128.766124,99.9363574 130.970682,102.13937 130.970682,106.543848 C130.970682,110.949099 128.766124,113.152884 124.362419,113.152884 L71.49554,113.152884 C67.0902889,113.152884 64.8872768,110.949099 64.8872768,106.543848 C64.8872768,102.13937 67.0902889,99.9363574 71.49554,99.9363574 L71.49554,99.9363574 Z"></path>
                <circle r="93.4023009" cy="93.4023009" cx="128.535774" fill-rule="nonzero" fill="url(#linearGradient-5)" id="椭圆形"></circle>
                <ellipse ry="10" rx="19.3114103" cy="35.7647371" cx="158.359253" transform="translate(158.359253, 35.764737) rotate(17.067486) translate(-158.359253, -35.764737)" fill-rule="nonzero" fill="#E7EAF0" id="椭圆形"></ellipse>
                <circle r="20.5" cy="77.26898" cx="110.455498" fill="#B7C0CC" id="椭圆形"></circle>
                <ellipse ry="4.69439918" rx="7.37437316" cy="50.6834444" cx="69.2145448" transform="translate(69.214545, 50.683444) rotate(-46.235767) translate(-69.214545, -50.683444)" fill-rule="nonzero" fill="#E7EAF0" id="椭圆形"></ellipse>
                <path fill-rule="nonzero" fill="url(#linearGradient-6)" id="路径" d="M220.50032,109.567772 C220.318668,110.656137 219.581621,114.224676 219.362093,115.299127 C235.509012,126.130217 242.896175,135.744691 240.634582,141.025901 C234.297193,157.203589 170.274691,150.414725 113.57064,132.300666 C56.8665881,114.186607 0.0481358022,81.6288585 7.09335639,66.8942683 C12.4877028,59.0754124 32.2073261,59.2562395 41.5641959,59.2562395 C42.0071173,58.2428539 43.6796139,54.6362453 44.1565467,53.6421845 C19.8538451,52.7725744 3.35057928,56.9041883 0.451106196,66.2356836 C-5.32155842,84.8120998 44.9805505,116.955205 112.804722,138.029915 C180.627347,159.104624 240.288779,161.128303 246.060671,142.551887 C248.798589,133.735201 238.900495,121.862125 220.50032,109.567772 Z"></path>
                <circle r="11.5" cy="116.031686" cx="196.471594" fill="#B7C0CC" id="椭圆形"></circle>
                <circle r="7" cy="123.531686" cx="125.971594" fill="#B7C0CC" id="椭圆形"></circle>
            </g>
        </g>
        <g fill-rule="nonzero" fill="url(#linearGradient-7)" transform="translate(388.000000, 249.000000) rotate(45.000000) translate(-388.000000, -249.000000) translate(370.000000, 220.000000)" id="问号">
            <path id="形状" d="M14.4,39.875 L14.4,32.625 L18,32.625 C24.12,32.625 28.8,27.9125 28.8,21.75 L28.8,18.125 C28.8,11.9625 24.12,7.24999998 18,7.24999998 C11.88,7.24999998 7.19999998,11.9625 7.19999998,18.125 L7.19999998,21.75 L0,21.75 L0,18.125 C0,7.97499995 7.92000004,0 18,0 C28.08,0 36,7.97500004 36,18.125 L36,21.75 C36,30.45 29.88,37.7 21.6,39.5125 L21.6,47.125 L14.4,47.125 L14.4,39.875 L14.4,39.875 Z M14.4,50.75 L21.6,50.75 L21.6,58 L14.4,58 L14.4,50.75 Z"></path>
        </g>
        <g fill-rule="nonzero" fill="url(#linearGradient-8)" transform="translate(345.000000, 225.000000) rotate(15.000000) translate(-345.000000, -225.000000) translate(332.000000, 204.000000)" id="问号备份">
            <path id="形状" d="M10.4,28.875 L10.4,23.625 L13,23.625 C17.42,23.625 20.8,20.2125 20.8,15.75 L20.8,13.125 C20.8,8.66250001 17.42,5.24999998 13,5.24999998 C8.58000001,5.24999998 5.19999999,8.66250001 5.19999999,13.125 L5.19999999,15.75 L0,15.75 L0,13.125 C0,5.77499996 5.72000003,2.84217094e-14 13,2.84217094e-14 C20.28,2.84217094e-14 26,5.77500003 26,13.125 L26,15.75 C26,22.05 21.58,27.3 15.6,28.6125 L15.6,34.125 L10.4,34.125 L10.4,28.875 L10.4,28.875 Z M10.4,36.75 L15.6,36.75 L15.6,42 L10.4,42 L10.4,36.75 Z"></path>
        </g>
    </g>
</svg>